<svg width="1559" height="1039" xmlns="http://www.w3.org/2000/svg" xmlns:xlink="http://www.w3.org/1999/xlink" xml:space="preserve" overflow="hidden"><defs><clipPath id="clip0"><rect x="6207" y="3590" width="1559" height="1039"/></clipPath><clipPath id="clip1"><rect x="6206" y="3590" width="1559" height="1039"/></clipPath><clipPath id="clip2"><rect x="6206" y="3590" width="1559" height="1039"/></clipPath><clipPath id="clip3"><rect x="6206" y="3590" width="1559" height="1039"/></clipPath><clipPath id="clip4"><rect x="6206" y="3590" width="1559" height="1039"/></clipPath><clipPath id="clip5"><rect x="6206" y="3590" width="1559" height="1039"/></clipPath><clipPath id="clip6"><rect x="6491" y="3643" width="1172" height="773"/></clipPath><clipPath id="clip7"><rect x="6206" y="3590" width="1559" height="1039"/></clipPath><clipPath id="clip8"><rect x="6491" y="3643" width="1172" height="773"/></clipPath><clipPath id="clip9"><rect x="6206" y="3590" width="1559" height="1039"/></clipPath><clipPath id="clip10"><rect x="6491" y="3643" width="1172" height="773"/></clipPath><clipPath id="clip11"><rect x="6206" y="3590" width="1559" height="1039"/></clipPath><clipPath id="clip12"><rect x="6206" y="3590" width="1559" height="1039"/></clipPath><clipPath id="clip13"><rect x="6206" y="3590" width="1559" height="1039"/></clipPath><clipPath id="clip14"><rect x="6206" y="3590" width="1559" height="1039"/></clipPath><clipPath id="clip15"><rect x="6206" y="3590" width="1559" height="1039"/></clipPath><clipPath id="clip16"><rect x="6206" y="3590" width="1559" height="1039"/></clipPath><clipPath id="clip17"><rect x="6206" y="3590" width="1559" height="1039"/></clipPath><clipPath id="clip18"><rect x="6206" y="3590" width="1559" height="1039"/></clipPath><clipPath id="clip19"><rect x="6206" y="3590" width="1559" height="1039"/></clipPath><clipPath id="clip20"><rect x="6206" y="3590" width="1559" height="1039"/></clipPath><clipPath id="clip21"><rect x="6206" y="3590" width="1559" height="1039"/></clipPath><clipPath id="clip22"><rect x="6206" y="3590" width="1559" height="1039"/></clipPath><clipPath id="clip23"><rect x="6206" y="3590" width="1559" height="1039"/></clipPath><clipPath id="clip24"><rect x="6206" y="3590" width="1559" height="1039"/></clipPath><clipPath id="clip25"><rect x="6206" y="3590" width="1559" height="1039"/></clipPath><clipPath id="clip26"><rect x="6206" y="3590" width="1559" height="1039"/></clipPath><clipPath id="clip27"><rect x="6206" y="3590" width="1559" height="1039"/></clipPath><clipPath id="clip28"><rect x="6206" y="3590" width="1559" height="1039"/></clipPath><clipPath id="clip29"><rect x="6206" y="3590" width="1559" height="1039"/></clipPath><clipPath id="clip30"><rect x="6206" y="3590" width="1559" height="1039"/></clipPath><clipPath id="clip31"><rect x="6206" y="3590" width="1559" height="1039"/></clipPath><clipPath id="clip32"><rect x="6206" y="3590" width="1559" height="1039"/></clipPath><clipPath id="clip33"><rect x="6206" y="3590" width="1559" height="1039"/></clipPath><clipPath id="clip34"><rect x="6206" y="3590" width="1559" height="1039"/></clipPath><clipPath id="clip35"><rect x="6206" y="3590" width="1559" height="1039"/></clipPath><clipPath id="clip36"><rect x="6206" y="3590" width="1559" height="1039"/></clipPath><clipPath id="clip37"><rect x="6206" y="3590" width="1559" height="1039"/></clipPath></defs><g clip-path="url(#clip0)" transform="translate(-6207 -3590)"><rect x="6207" y="3590" width="1559" height="1039" fill="#FFFFFF"/><g clip-path="url(#clip1)"><rect x="6491" y="3643" width="1169" height="770" fill="#FFFFFF"/></g><g clip-path="url(#clip2)"><path d="M0 0 0.000360892 769" stroke="#000000" stroke-width="3.4375" stroke-linejoin="round" stroke-miterlimit="10" fill="none" fill-rule="evenodd" transform="matrix(1 0 0 -1 6491.5 4412.5)"/></g><g clip-path="url(#clip3)"><path d="M6491.71 4412.5 6503.71 4412.5M6491.71 4374.64 6503.71 4374.64M6491.71 4335.64 6503.71 4335.64M6491.71 4297.64 6503.71 4297.64M6491.71 4258.64 6503.71 4258.64M6491.71 4220.64 6503.71 4220.64M6491.71 4181.64 6503.71 4181.64M6491.71 4143.64 6503.71 4143.64M6491.71 4104.63 6503.71 4104.63M6491.71 4066.63 6503.71 4066.63M6491.71 4027.63 6503.71 4027.63M6491.71 3989.63 6503.71 3989.63M6491.71 3951.63 6503.71 3951.63M6491.71 3912.63 6503.71 3912.63M6491.71 3874.63 6503.71 3874.63M6491.71 3835.63 6503.71 3835.63M6491.71 3797.62 6503.71 3797.62M6491.71 3758.62 6503.71 3758.62M6491.71 3720.62 6503.71 3720.62M6491.71 3681.62 6503.71 3681.62M6491.71 3643.5 6503.71 3643.5M6475.5 4412.5 6507.5 4412.5M6475.5 4258.64 6507.5 4258.64M6475.5 4104.63 6507.5 4104.63M6475.5 3951.63 6507.5 3951.63M6475.5 3797.62 6507.5 3797.62M6475.5 3643.5 6507.5 3643.5" stroke="#000000" stroke-width="3.4375" stroke-linejoin="round" stroke-miterlimit="10" fill="none"/></g><g clip-path="url(#clip4)"><path d="M6491.5 4412.5 7660.5 4412.5" stroke="#000000" stroke-width="3.4375" stroke-linejoin="round" stroke-miterlimit="10" fill="none" fill-rule="evenodd"/></g><g clip-path="url(#clip5)"><path d="M6491.5 4412.5 6491.5 4428.5M6686.72 4412.5 6686.72 4428.5M6880.73 4412.5 6880.73 4428.5M7075.73 4412.5 7075.73 4428.5M7270.74 4412.5 7270.74 4428.5M7465.75 4412.5 7465.75 4428.5M7660.5 4412.5 7660.5 4428.5" stroke="#000000" stroke-width="3.4375" stroke-linejoin="round" stroke-miterlimit="10" fill="none"/></g><g clip-path="url(#clip6)"><path d="M6588.5 3848.5 6686.72 3883.63 6783.72 3916.63 6880.73 3947.63 6978.73 3977.63 7075.73 4004.63 7173.74 4029.63 7270.74 4053.63 7367.74 4076.63 7465.75 4097.63 7562.5 4117.5" stroke="#A6A6A6" stroke-width="6.875" stroke-linecap="round" stroke-linejoin="round" stroke-miterlimit="10" fill="none"/></g><g clip-path="url(#clip7)"><path d="M6588.75 3835.12 6601.75 3848.12 6588.75 3861.12 6575.75 3848.12Z" stroke="#7F7F7F" stroke-width="2.29167" stroke-linejoin="round" stroke-miterlimit="10" fill="#BFBFBF"/><path d="M6685.75 3871.12 6698.75 3884.12 6685.75 3897.12 6672.75 3884.12Z" stroke="#7F7F7F" stroke-width="2.29167" stroke-linejoin="round" stroke-miterlimit="10" fill="#BFBFBF"/><path d="M6783.75 3904.12 6796.75 3917.12 6783.75 3930.12 6770.75 3917.12Z" stroke="#7F7F7F" stroke-width="2.29167" stroke-linejoin="round" stroke-miterlimit="10" fill="#BFBFBF"/><path d="M6880.75 3935.12 6893.75 3948.12 6880.75 3961.12 6867.75 3948.12Z" stroke="#7F7F7F" stroke-width="2.29167" stroke-linejoin="round" stroke-miterlimit="10" fill="#BFBFBF"/><path d="M6977.75 3964.12 6990.75 3977.12 6977.75 3990.12 6964.75 3977.12Z" stroke="#7F7F7F" stroke-width="2.29167" stroke-linejoin="round" stroke-miterlimit="10" fill="#BFBFBF"/><path d="M7075.75 3991.12 7088.75 4004.12 7075.75 4017.12 7062.75 4004.12Z" stroke="#7F7F7F" stroke-width="2.29167" stroke-linejoin="round" stroke-miterlimit="10" fill="#BFBFBF"/><path d="M7172.75 4017.12 7185.75 4030.12 7172.75 4043.12 7159.75 4030.12Z" stroke="#7F7F7F" stroke-width="2.29167" stroke-linejoin="round" stroke-miterlimit="10" fill="#BFBFBF"/><path d="M7270.75 4041.12 7283.75 4054.12 7270.75 4067.12 7257.75 4054.12Z" stroke="#7F7F7F" stroke-width="2.29167" stroke-linejoin="round" stroke-miterlimit="10" fill="#BFBFBF"/><path d="M7367.75 4064.12 7380.75 4077.12 7367.75 4090.12 7354.75 4077.12Z" stroke="#7F7F7F" stroke-width="2.29167" stroke-linejoin="round" stroke-miterlimit="10" fill="#BFBFBF"/><path d="M7465.75 4085.12 7478.75 4098.12 7465.75 4111.12 7452.75 4098.12Z" stroke="#7F7F7F" stroke-width="2.29167" stroke-linejoin="round" stroke-miterlimit="10" fill="#BFBFBF"/><path d="M7562.75 4104.12 7575.75 4117.12 7562.75 4130.12 7549.75 4117.12Z" stroke="#7F7F7F" stroke-width="2.29167" stroke-linejoin="round" stroke-miterlimit="10" fill="#BFBFBF"/></g><g clip-path="url(#clip8)"><path d="M6588.5 4339.5 6686.72 4346.64 6783.72 4352.64 6880.73 4358.64 6978.73 4363.64 7075.73 4368.64 7173.74 4372.64 7270.74 4376.64 7367.74 4380.64 7465.75 4383.64 7562.5 4386.5" stroke="#8FAADC" stroke-width="6.875" stroke-linecap="round" stroke-linejoin="round" stroke-miterlimit="10" fill="none"/></g><g clip-path="url(#clip9)"><path d="M6601.75 4352.12 6575.75 4326.12M6575.75 4352.12 6601.75 4326.12" stroke="#4472C4" stroke-width="2.29167" stroke-linejoin="round" stroke-miterlimit="10" fill="none"/><path d="M6698.75 4359.12 6672.75 4333.12M6672.75 4359.12 6698.75 4333.12" stroke="#4472C4" stroke-width="2.29167" stroke-linejoin="round" stroke-miterlimit="10" fill="none"/><path d="M6796.75 4366.12 6770.75 4340.12M6770.75 4366.12 6796.75 4340.12" stroke="#4472C4" stroke-width="2.29167" stroke-linejoin="round" stroke-miterlimit="10" fill="none"/><path d="M6893.75 4372.12 6867.75 4346.12M6867.75 4372.12 6893.75 4346.12" stroke="#4472C4" stroke-width="2.29167" stroke-linejoin="round" stroke-miterlimit="10" fill="none"/><path d="M6990.75 4377.12 6964.75 4351.12M6964.75 4377.12 6990.75 4351.12" stroke="#4472C4" stroke-width="2.29167" stroke-linejoin="round" stroke-miterlimit="10" fill="none"/><path d="M7088.75 4382.12 7062.75 4356.12M7062.75 4382.12 7088.75 4356.12" stroke="#4472C4" stroke-width="2.29167" stroke-linejoin="round" stroke-miterlimit="10" fill="none"/><path d="M7185.75 4386.12 7159.75 4360.12M7159.75 4386.12 7185.75 4360.12" stroke="#4472C4" stroke-width="2.29167" stroke-linejoin="round" stroke-miterlimit="10" fill="none"/><path d="M7283.75 4390.12 7257.75 4364.12M7257.75 4390.12 7283.75 4364.12" stroke="#4472C4" stroke-width="2.29167" stroke-linejoin="round" stroke-miterlimit="10" fill="none"/><path d="M7380.75 4393.12 7354.75 4367.12M7354.75 4393.12 7380.75 4367.12" stroke="#4472C4" stroke-width="2.29167" stroke-linejoin="round" stroke-miterlimit="10" fill="none"/><path d="M7478.75 4396.12 7452.75 4370.12M7452.75 4396.12 7478.75 4370.12" stroke="#4472C4" stroke-width="2.29167" stroke-linejoin="round" stroke-miterlimit="10" fill="none"/><path d="M7575.75 4399.12 7549.75 4373.12M7549.75 4399.12 7575.75 4373.12" stroke="#4472C4" stroke-width="2.29167" stroke-linejoin="round" stroke-miterlimit="10" fill="none"/></g><g clip-path="url(#clip10)"><path d="M6588.5 3773.5 6686.72 3817.63 6783.72 3858.63 6880.73 3896.63 6978.73 3931.63 7075.73 3964.63 7173.74 3995.63 7270.74 4024.63 7367.74 4050.63 7465.75 4075.63 7562.5 4099.5" stroke="#A9D18E" stroke-width="6.875" stroke-linecap="round" stroke-linejoin="round" stroke-miterlimit="10" fill="none"/></g><g clip-path="url(#clip11)"><path d="M6599.25 3773.62C6599.25 3779.7 6594.32 3784.62 6588.25 3784.62 6582.17 3784.62 6577.25 3779.7 6577.25 3773.62 6577.25 3767.55 6582.17 3762.62 6588.25 3762.62 6594.32 3762.62 6599.25 3767.55 6599.25 3773.62Z" stroke="#385723" stroke-width="3.4375" stroke-linejoin="round" stroke-miterlimit="10" fill="#70AD47"/><path d="M6697.25 3817.62C6697.25 3823.7 6692.32 3828.62 6686.25 3828.62 6680.17 3828.62 6675.25 3823.7 6675.25 3817.62 6675.25 3811.55 6680.17 3806.62 6686.25 3806.62 6692.32 3806.62 6697.25 3811.55 6697.25 3817.62Z" stroke="#385723" stroke-width="3.4375" stroke-linejoin="round" stroke-miterlimit="10" fill="#70AD47"/><path d="M6794.25 3858.62C6794.25 3864.7 6789.32 3869.62 6783.25 3869.62 6777.17 3869.62 6772.25 3864.7 6772.25 3858.62 6772.25 3852.55 6777.17 3847.62 6783.25 3847.62 6789.32 3847.62 6794.25 3852.55 6794.25 3858.62Z" stroke="#385723" stroke-width="3.4375" stroke-linejoin="round" stroke-miterlimit="10" fill="#70AD47"/><path d="M6892.25 3896.62C6892.25 3902.7 6887.32 3907.62 6881.25 3907.62 6875.17 3907.62 6870.25 3902.7 6870.25 3896.62 6870.25 3890.55 6875.17 3885.62 6881.25 3885.62 6887.32 3885.62 6892.25 3890.55 6892.25 3896.62Z" stroke="#385723" stroke-width="3.4375" stroke-linejoin="round" stroke-miterlimit="10" fill="#70AD47"/><path d="M6989.25 3931.62C6989.25 3937.7 6984.32 3942.62 6978.25 3942.62 6972.17 3942.62 6967.25 3937.7 6967.25 3931.62 6967.25 3925.55 6972.17 3920.62 6978.25 3920.62 6984.32 3920.62 6989.25 3925.55 6989.25 3931.62Z" stroke="#385723" stroke-width="3.4375" stroke-linejoin="round" stroke-miterlimit="10" fill="#70AD47"/><path d="M7086.25 3964.62C7086.25 3970.7 7081.32 3975.62 7075.25 3975.62 7069.17 3975.62 7064.25 3970.7 7064.25 3964.62 7064.25 3958.55 7069.17 3953.62 7075.25 3953.62 7081.32 3953.62 7086.25 3958.55 7086.25 3964.62Z" stroke="#385723" stroke-width="3.4375" stroke-linejoin="round" stroke-miterlimit="10" fill="#70AD47"/><path d="M7184.25 3995.62C7184.25 4001.7 7179.32 4006.62 7173.25 4006.62 7167.17 4006.62 7162.25 4001.7 7162.25 3995.62 7162.25 3989.55 7167.17 3984.62 7173.25 3984.62 7179.32 3984.62 7184.25 3989.55 7184.25 3995.62Z" stroke="#385723" stroke-width="3.4375" stroke-linejoin="round" stroke-miterlimit="10" fill="#70AD47"/><path d="M7281.25 4024.62C7281.25 4030.7 7276.32 4035.62 7270.25 4035.62 7264.17 4035.62 7259.25 4030.7 7259.25 4024.62 7259.25 4018.55 7264.17 4013.62 7270.25 4013.62 7276.32 4013.62 7281.25 4018.55 7281.25 4024.62Z" stroke="#385723" stroke-width="3.4375" stroke-linejoin="round" stroke-miterlimit="10" fill="#70AD47"/><path d="M7379.25 4051.62C7379.25 4057.7 7374.32 4062.62 7368.25 4062.62 7362.17 4062.62 7357.25 4057.7 7357.25 4051.62 7357.25 4045.55 7362.17 4040.62 7368.25 4040.62 7374.32 4040.62 7379.25 4045.55 7379.25 4051.62Z" stroke="#385723" stroke-width="3.4375" stroke-linejoin="round" stroke-miterlimit="10" fill="#70AD47"/><path d="M7476.25 4075.62C7476.25 4081.7 7471.32 4086.62 7465.25 4086.62 7459.17 4086.62 7454.25 4081.7 7454.25 4075.62 7454.25 4069.55 7459.17 4064.62 7465.25 4064.62 7471.32 4064.62 7476.25 4069.55 7476.25 4075.62Z" stroke="#385723" stroke-width="3.4375" stroke-linejoin="round" stroke-miterlimit="10" fill="#70AD47"/><path d="M7573.25 4099.62C7573.25 4105.7 7568.32 4110.62 7562.25 4110.62 7556.17 4110.62 7551.25 4105.7 7551.25 4099.62 7551.25 4093.55 7556.17 4088.62 7562.25 4088.62 7568.32 4088.62 7573.25 4093.55 7573.25 4099.62Z" stroke="#385723" stroke-width="3.4375" stroke-linejoin="round" stroke-miterlimit="10" fill="#70AD47"/></g><g clip-path="url(#clip12)"><text font-family="Times New Roman,Times New Roman_MSFontService,sans-serif" font-weight="400" font-size="55" transform="matrix(1 0 0 1 6417.12 4430)">0</text></g><g clip-path="url(#clip13)"><text font-family="Times New Roman,Times New Roman_MSFontService,sans-serif" font-weight="400" font-size="55" transform="matrix(1 0 0 1 6362.12 4276)">100</text></g><g clip-path="url(#clip14)"><text font-family="Times New Roman,Times New Roman_MSFontService,sans-serif" font-weight="400" font-size="55" transform="matrix(1 0 0 1 6362.12 4122)">200</text></g><g clip-path="url(#clip15)"><text font-family="Times New Roman,Times New Roman_MSFontService,sans-serif" font-weight="400" font-size="55" transform="matrix(1 0 0 1 6362.12 3968)">300</text></g><g clip-path="url(#clip16)"><text font-family="Times New Roman,Times New Roman_MSFontService,sans-serif" font-weight="400" font-size="55" transform="matrix(1 0 0 1 6362.12 3814)">400</text></g><g clip-path="url(#clip17)"><text font-family="Times New Roman,Times New Roman_MSFontService,sans-serif" font-weight="400" font-size="55" transform="matrix(1 0 0 1 6362.12 3661)">500</text></g><g clip-path="url(#clip18)"><text font-family="Times New Roman,Times New Roman_MSFontService,sans-serif" font-weight="400" font-size="55" transform="matrix(1 0 0 1 6436.42 4494)">2019</text></g><g clip-path="url(#clip19)"><text font-family="Times New Roman,Times New Roman_MSFontService,sans-serif" font-weight="400" font-size="55" transform="matrix(1 0 0 1 6631.25 4494)">2021</text></g><g clip-path="url(#clip20)"><text font-family="Times New Roman,Times New Roman_MSFontService,sans-serif" font-weight="400" font-size="55" transform="matrix(1 0 0 1 6826.08 4494)">2023</text></g><g clip-path="url(#clip21)"><text font-family="Times New Roman,Times New Roman_MSFontService,sans-serif" font-weight="400" font-size="55" transform="matrix(1 0 0 1 7020.9 4494)">2025</text></g><g clip-path="url(#clip22)"><text font-family="Times New Roman,Times New Roman_MSFontService,sans-serif" font-weight="400" font-size="55" transform="matrix(1 0 0 1 7215.73 4494)">2027</text></g><g clip-path="url(#clip23)"><text font-family="Times New Roman,Times New Roman_MSFontService,sans-serif" font-weight="400" font-size="55" transform="matrix(1 0 0 1 7410.56 4494)">2029</text></g><g clip-path="url(#clip24)"><text font-family="Times New Roman,Times New Roman_MSFontService,sans-serif" font-weight="400" font-size="55" transform="matrix(1 0 0 1 7605.39 4494)">2031</text></g><g clip-path="url(#clip25)"><text font-family="Times New Roman,Times New Roman_MSFontService,sans-serif" font-weight="400" font-size="73" transform="matrix(6.12323e-17 -1 1 6.12323e-17 6320.59 4176)">CO</text></g><g clip-path="url(#clip26)"><text font-family="Times New Roman,Times New Roman_MSFontService,sans-serif" font-weight="400" font-size="49" transform="matrix(6.12323e-17 -1 1 6.12323e-17 6337.6 4074)">2</text></g><g clip-path="url(#clip27)"><text font-family="Times New Roman,Times New Roman_MSFontService,sans-serif" font-weight="400" font-size="73" transform="matrix(6.12323e-17 -1 1 6.12323e-17 6320.59 4049)">e [kton]</text></g><g clip-path="url(#clip28)"><text font-family="Times New Roman,Times New Roman_MSFontService,sans-serif" font-weight="400" font-size="73" transform="matrix(1 0 0 1 7006.8 4591)">Year</text></g><g clip-path="url(#clip29)"><path d="M7339.5 3669.5 7427.5 3669.5" stroke="#A6A6A6" stroke-width="6.875" stroke-linecap="round" stroke-linejoin="round" stroke-miterlimit="10" fill="none" fill-rule="evenodd"/></g><g clip-path="url(#clip30)"><path d="M7383 3656 7396 3669 7383 3682 7370 3669Z" stroke="#7F7F7F" stroke-width="2.29167" stroke-linejoin="round" stroke-miterlimit="10" fill="#BFBFBF"/></g><g clip-path="url(#clip31)"><text fill="#0000FF" font-family="Times New Roman,Times New Roman_MSFontService,sans-serif" font-weight="400" font-size="55" transform="matrix(1 0 0 1 7437.18 3686)">Diesel</text></g><g clip-path="url(#clip32)"><path d="M7339.5 3756.5 7427.5 3756.5" stroke="#8FAADC" stroke-width="6.875" stroke-linecap="round" stroke-linejoin="round" stroke-miterlimit="10" fill="none" fill-rule="evenodd"/></g><g clip-path="url(#clip33)"><path d="M7396 3769 7370 3743M7370 3769 7396 3743" stroke="#4472C4" stroke-width="2.29167" stroke-linejoin="round" stroke-miterlimit="10" fill="none"/></g><g clip-path="url(#clip34)"><text fill="#0000FF" font-family="Times New Roman,Times New Roman_MSFontService,sans-serif" font-weight="400" font-size="55" transform="matrix(1 0 0 1 7437.18 3774)">CNG</text></g><g clip-path="url(#clip35)"><path d="M7339.5 3844.5 7427.5 3844.5" stroke="#A9D18E" stroke-width="6.875" stroke-linecap="round" stroke-linejoin="round" stroke-miterlimit="10" fill="none" fill-rule="evenodd"/></g><g clip-path="url(#clip36)"><path d="M7394 3844C7394 3850.07 7389.08 3855 7383 3855 7376.92 3855 7372 3850.07 7372 3844 7372 3837.92 7376.92 3833 7383 3833 7389.08 3833 7394 3837.92 7394 3844Z" stroke="#385723" stroke-width="3.4375" stroke-linejoin="round" stroke-miterlimit="10" fill="#70AD47"/></g><g clip-path="url(#clip37)"><text fill="#0000FF" font-family="Times New Roman,Times New Roman_MSFontService,sans-serif" font-weight="400" font-size="55" transform="matrix(1 0 0 1 7437.18 3862)">Whole fleet</text></g></g></svg>