<?xml version="1.0" encoding="utf-8"?>
<!DOCTYPE svg PUBLIC "-//W3C//DTD SVG 20010904//EN" "http://www.w3.org/TR/2001/REC-SVG-20010904/DTD/svg10.dtd">
<svg version="1.0" xmlns="http://www.w3.org/2000/svg" width="1002px" height="316px" viewBox="0 0 1002 316" preserveAspectRatio="xMidYMid meet">
 <g fill="#000000">
  <path d="M43 236.8 c0 -31.5 0.4 -59.8 0.9 -62.9 1.7 -10.1 6.7 -21 12.6 -27.2 2.9 -3.1 5.8 -5.7 6.4 -5.7 0.6 0 1.1 -0.4 1.1 -0.8 0 -0.5 1.9 -1.8 4.3 -3 3.8 -1.9 7.6 -3.1 19.3 -6.1 6.3 -1.7 45.5 -1.4 53.4 0.3 11 2.5 21.8 6.6 22.8 8.9 0.2 0.4 0.8 0.7 1.3 0.7 2.4 0 11.9 9.6 16.2 16.3 8.5 13.4 11.5 30.4 8.7 48.7 -2.6 16.4 -12.8 31.6 -25.5 38 -1.7 0.8 -3.2 1.7 -3.5 2 -1.7 1.8 -15.2 5.2 -24.4 6.1 -11.7 1.2 -34.9 -0.1 -38.7 -2.1 -1.8 -1 -1.9 -2.2 -1.9 -17.5 0 -16.6 0.4 -20 2.2 -18.9 1 0.6 7.2 1.6 19.7 3 5.1 0.6 14.7 -0.8 18.3 -2.7 1 -0.5 2.4 -0.9 3.1 -0.9 1.9 0 7.3 -5.3 9.4 -9.2 1.2 -2.4 1.7 -5.6 1.7 -12.3 0 -7.9 -0.4 -9.5 -2.6 -13 -3.3 -5.1 -5.3 -6.9 -10.8 -9.4 -4 -1.8 -6.6 -2.1 -21.6 -2.1 -18.9 0 -22.2 0.7 -27.2 6 -5.1 5.3 -5.2 6.6 -5.2 65.9 l0 55.1 -20 0 -20 0 0 -57.2z"/>
  <path d="M454 251.4 c-8.1 -0.9 -21.8 -6.1 -27.5 -10.4 -5.7 -4.3 -11.1 -11 -14 -17.4 -6.1 -13.3 -6 -12.3 -6 -80.6 l0 -62.5 20 0 20 0 0.5 61 c0.5 58.6 0.6 61.1 2.5 64 2.9 4.4 6.4 7.2 9.9 8 6.1 1.5 30.9 1.7 36.9 0.4 3.1 -0.7 5.7 -1.7 5.7 -2.1 0 -0.4 0.6 -0.8 1.4 -0.8 2.3 0 8.4 -7.7 9.7 -12.2 0.6 -2.5 0.9 -7.5 0.6 -12 -0.8 -12.1 -5.2 -17 -18.2 -20.4 -6.6 -1.8 -13.4 -1.7 -25.1 0.1 -5.2 0.9 -9.9 1.3 -10.4 1 -0.6 -0.4 -1 -8 -1 -17.9 l0 -17.3 4.3 -1.1 c7.7 -2 14.1 -2.6 25.2 -2.7 18.3 0 32 3.5 42.6 10.6 5.7 3.8 14.9 13.6 14.9 15.8 0 0.6 0.5 1.1 1 1.1 0.6 0 1 0.9 1 2 0 1.1 0.5 2 1 2 0.6 0 1 0.7 1 1.5 0 0.8 0.4 2.3 0.9 3.3 3.7 7.1 5 32 2.2 41.3 -3.5 11.6 -7.9 19.5 -14.6 26.3 -8.9 9.1 -13.9 12.1 -27.5 16.7 -5.8 2 -8.9 2.2 -30 2.4 -12.9 0.2 -25.1 0.1 -27 -0.1z"/>
  <path d="M683 251.4 c-7.2 -0.9 -20.5 -6.7 -25.6 -11.1 -1.6 -1.4 -4 -3.5 -5.4 -4.7 -5.8 -4.9 -11.5 -14 -14.4 -22.8 -3.4 -10.2 -3.8 -15.2 -3.4 -42.8 l0.3 -27.5 3.2 -8.8 c6.6 -18.6 17.5 -29.3 37.3 -36.5 3.8 -1.4 9 -1.7 34.5 -1.7 l30 0 7 2.9 c13.8 5.7 25 15.6 30.8 27.3 6.1 12.1 6.2 13.2 6.2 47.3 0 35.4 -0.3 37.5 -7.6 50 -7.1 12.2 -16.1 19.8 -29.4 25 -1.1 0.4 -3.3 1.3 -5 2.1 -2.2 0.9 -10.2 1.3 -29 1.5 -14.3 0.1 -27.6 0 -29.5 -0.2z m51.9 -26.6 c10.6 -3.7 18.8 -11.6 21.6 -21 1.9 -6.6 2.2 -53.6 0.3 -60.2 -3.1 -10.8 -12.1 -19.1 -24.4 -22.5 -6 -1.6 -41.7 -1.4 -47.4 0.3 -7.9 2.4 -9 2.8 -9 3.7 0 0.5 -0.6 0.9 -1.4 0.9 -1.5 0 -8.7 7.4 -10.6 10.9 -3.4 6.5 -4 11.6 -4 36.8 0 23.8 0.1 25.6 2.3 31.5 1.3 3.5 3.6 7.9 5.2 9.7 3.1 3.4 9.8 7.8 15 9.7 4.3 1.7 47.8 1.8 52.4 0.2z"/>
  <path d="M704 196.1 c-7.3 -1.8 -14.4 -10.1 -15.5 -18.1 -2.8 -19.6 17.8 -33.4 32.8 -22 6.2 4.7 8.5 9.6 8.6 18.3 0.1 7.4 -1.9 12 -7.4 17.2 -5.3 5.1 -11.1 6.5 -18.5 4.6z"/>
  <path d="M900 251 c-8.8 -1.4 -14.3 -4.2 -20.6 -10.6 -11.8 -11.8 -12.3 -15.4 -12.3 -91.5 -0.1 -47.2 0.1 -52.7 1.5 -53.3 2 -0.8 35.8 -0.8 37.8 0 1.4 0.5 1.6 2.9 1.6 15.9 0 8.4 0.3 16 0.6 16.9 0.5 1.4 3.6 1.6 24.5 1.6 l23.9 0 -0.2 16.8 -0.3 16.7 -24.2 0.3 -24.3 0.2 0 22 c0 12 0.4 22.9 0.9 24.2 2.8 7.4 7.7 8.8 30 8.8 l17.1 0 -0.2 16.3 -0.3 16.2 -25.5 0.1 c-14 0.1 -27.5 -0.2 -30 -0.6z"/>
  <path d="M275.2 201.3 l0.3 -49.8 17.5 -0.3 c9.6 -0.1 18.5 0 19.8 0.3 l2.2 0.5 0 48.9 c0 43.7 -0.2 49 -1.6 49.5 -0.9 0.3 -9.9 0.6 -20 0.6 l-18.4 0 0.2 -49.7z"/>
  <path d="M286.6 122.7 c-8.3 -5.1 -12 -11.5 -12 -20.7 0 -21.8 25.1 -30.2 37.2 -12.5 2.9 4.2 3.2 5.5 3.2 11.8 0 5 -0.6 8.3 -2 11.2 -2.2 4.6 -7.1 9.5 -9.5 9.5 -0.8 0 -1.5 0.5 -1.5 1 0 1.4 -13.1 1.1 -15.4 -0.3z"/>
 </g>
</svg>